HIERARCHY
ROOT hip
{
  OFFSET 0 0 0
  CHANNELS 6 Xposition Yposition Zposition Zrotation Yrotation Xrotation
  JOINT abdomen
  {
    OFFSET 0 20.6881 -0.73152
    CHANNELS 3 Zrotation Xrotation Yrotation
    JOINT chest
    {
      OFFSET 0 11.7043 -0.48768
      CHANNELS 3 Zrotation Xrotation Yrotation
      JOINT neck
      {
        OFFSET 0 22.1894 -2.19456
        CHANNELS 3 Zrotation Xrotation Yrotation
        JOINT head
        {
          OFFSET -0.24384 7.07133 1.2192
          CHANNELS 3 Zrotation Xrotation Yrotation
          JOINT leftEye
          {
            OFFSET 4.14528 8.04674 8.04672
            CHANNELS 3 Zrotation Xrotation Yrotation
            End Site
            {
              OFFSET 1 0 0
            }
          }
          JOINT rightEye
          {
            OFFSET -3.6576 8.04674 8.04672
            CHANNELS 3 Zrotation Xrotation Yrotation
            End Site
            {
              OFFSET 1 0 0
            }
          }
        }
      }
      JOINT rCollar
      {
        OFFSET -2.68224 19.2634 -4.8768
        CHANNELS 3 Zrotation Xrotation Yrotation
        JOINT rShldr
        {
          OFFSET -8.77824 -1.95073 1.46304
          CHANNELS 3 Zrotation Xrotation Yrotation
          JOINT rForeArm
          {
            OFFSET -28.1742 -1.7115 0.48768
            CHANNELS 3 Zrotation Xrotation Yrotation
            JOINT rHand
            {
              OFFSET -22.5879 0.773209 7.07136
              CHANNELS 3 Zrotation Xrotation Yrotation
              JOINT rThumb1
              {
                OFFSET -1.2192 -0.487915 3.41376
                CHANNELS 3 Zrotation Xrotation Yrotation
                JOINT rThumb2
                {
                  OFFSET -3.37035 -0.52449 3.41376
                  CHANNELS 3 Zrotation Xrotation Yrotation
                  End Site
                  {
                    OFFSET -1.78271 -1.18214 1.43049
                  }
                }
              }
              JOINT rIndex1
              {
                OFFSET -7.75947 0.938293 5.60832
                CHANNELS 3 Zrotation Xrotation Yrotation
                JOINT rIndex2
                {
                  OFFSET -2.54057 -0.884171 1.56538
                  CHANNELS 3 Zrotation Xrotation Yrotation
                  End Site
                  {
                    OFFSET -1.62519 -0.234802 1.16502
                  }
                }
              }
              JOINT rMid1
              {
                OFFSET -8.24714 1.18213 3.41376
                CHANNELS 3 Zrotation Xrotation Yrotation
                JOINT rMid2
                {
                  OFFSET -3.10165 -0.590103 1.0647
                  CHANNELS 3 Zrotation Xrotation Yrotation
                  End Site
                  {
                    OFFSET -2.48547 -0.328903 0.83742
                  }
                }
              }
              JOINT rRing1
              {
                OFFSET -8.82822 0.546677 1.51678
                CHANNELS 3 Zrotation Xrotation Yrotation
                JOINT rRing2
                {
                  OFFSET -2.60934 -0.819778 -0.0198488
                  CHANNELS 3 Zrotation Xrotation Yrotation
                  End Site
                  {
                    OFFSET -2.33842 -0.294052 0.168128
                  }
                }
              }
              JOINT rPinky1
              {
                OFFSET -8.27202 -0.0477905 -0.4584
                CHANNELS 3 Zrotation Xrotation Yrotation
                JOINT rPinky2
                {
                  OFFSET -1.82734 -0.647385 -0.700984
                  CHANNELS 3 Zrotation Xrotation Yrotation
                  End Site
                  {
                    OFFSET -1.69225 -0.51767 -0.607171
                  }
                }
              }
            }
          }
        }
      }
      JOINT lCollar
      {
        OFFSET 2.68224 19.2634 -4.8768
        CHANNELS 3 Zrotation Xrotation Yrotation
        JOINT lShldr
        {
          OFFSET 8.77824 -1.95073 1.46304
          CHANNELS 3 Zrotation Xrotation Yrotation
          JOINT lForeArm
          {
            OFFSET 28.1742 -1.7115 0.48768
            CHANNELS 3 Zrotation Xrotation Yrotation
            JOINT lHand
            {
              OFFSET 22.5879 0.773209 7.07136
              CHANNELS 3 Zrotation Xrotation Yrotation
              JOINT lThumb1
              {
                OFFSET 1.2192 -0.487915 3.41376
                CHANNELS 3 Zrotation Xrotation Yrotation
                JOINT lThumb2
                {
                  OFFSET 3.37035 -0.52449 3.41376
                  CHANNELS 3 Zrotation Xrotation Yrotation
                  End Site
                  {
                    OFFSET 1.78271 -1.18214 1.43049
                  }
                }
              }
              JOINT lIndex1
              {
                OFFSET 7.75947 0.938293 5.60832
                CHANNELS 3 Zrotation Xrotation Yrotation
                JOINT lIndex2
                {
                  OFFSET 2.54057 -0.884171 1.56538
                  CHANNELS 3 Zrotation Xrotation Yrotation
                  End Site
                  {
                    OFFSET 1.62519 -0.234802 1.16502
                  }
                }
              }
              JOINT lMid1
              {
                OFFSET 8.24714 1.18213 3.41376
                CHANNELS 3 Zrotation Xrotation Yrotation
                JOINT lMid2
                {
                  OFFSET 3.10165 -0.590103 1.0647
                  CHANNELS 3 Zrotation Xrotation Yrotation
                  End Site
                  {
                    OFFSET 2.48547 -0.328903 0.83742
                  }
                }
              }
              JOINT lRing1
              {
                OFFSET 8.82822 0.546677 1.51678
                CHANNELS 3 Zrotation Xrotation Yrotation
                JOINT lRing2
                {
                  OFFSET 2.60934 -0.819778 -0.0198488
                  CHANNELS 3 Zrotation Xrotation Yrotation
                  End Site
                  {
                    OFFSET 2.33842 -0.294052 0.168128
                  }
                }
              }
              JOINT lPinky1
              {
                OFFSET 8.27202 -0.0477905 -0.4584
                CHANNELS 3 Zrotation Xrotation Yrotation
                JOINT lPinky2
                {
                  OFFSET 1.82734 -0.647385 -0.700984
                  CHANNELS 3 Zrotation Xrotation Yrotation
                  End Site
                  {
                    OFFSET 1.69225 -0.51767 -0.607171
                  }
                }
              }
            }
          }
        }
      }
    }
  }
  JOINT rButtock
  {
    OFFSET -8.77824 4.35084 1.2192
    CHANNELS 3 Zrotation Xrotation Yrotation
    JOINT rThigh
    {
      OFFSET 0 -1.70687 -2.19456
      CHANNELS 3 Zrotation Xrotation Yrotation
      JOINT rShin
      {
        OFFSET 0 -36.8199 0.73152
        CHANNELS 3 Zrotation Xrotation Yrotation
        JOINT rFoot
        {
          OFFSET 0.73152 -45.1104 -5.12064
          CHANNELS 3 Zrotation Xrotation Yrotation
          End Site
          {
            OFFSET -1.1221 -3.69964 12.103
          }
        }
      }
    }
  }
  JOINT lButtock
  {
    OFFSET 8.77824 4.35084 1.2192
    CHANNELS 3 Zrotation Xrotation Yrotation
    JOINT lThigh
    {
      OFFSET 0 -1.70687 -2.19456
      CHANNELS 3 Zrotation Xrotation Yrotation
      JOINT lShin
      {
        OFFSET 0 -36.8199 0.73152
        CHANNELS 3 Zrotation Xrotation Yrotation
        JOINT lFoot
        {
          OFFSET -0.73152 -45.1104 -5.12064
          CHANNELS 3 Zrotation Xrotation Yrotation
          End Site
          {
            OFFSET 1.1221 -3.69964 12.103
          }
        }
      }
    }
  }
}
MOTION
Frames:	4
Frame Time:	0.03333
0.003590000094845891 48.659400939941406 0.07320000231266022 -17.95450061559677 -27.119201123714447 15.744499862194061 14.215100258588791 7.276460230350494 4.191239923238754 1.4162499457597733 -7.56290003657341 1.1640900280326605 0.3841399820521474 12.413400113582611 6.89313031733036 4.033849909901619 -25.31289964914322 14.57399994134903 0.0 0.0 0.0 0.0 0.0 0.0 1.5987211554602254e-13 0.0 -6.394884621840902e-13 106.3349962234497 46.21880114078522 -55.303298234939575 -27.307199835777283 -43.13409984111786 89.74649906158447 -7.2164203226566315 -57.977197766304016 -12.986100018024445 2.2605917138207587e-09 -5.126139512867667e-09 -8.076739277385059e-10 3.92821775108132e-09 -8.732854439585935e-09 -1.2994405551580712e-09 2.2605917138207587e-09 -5.126139512867667e-09 -8.076739277385059e-10 7.7309102565050125 5.474880114197731 0.41731400415301323 2.2605917138207587e-09 -5.126139512867667e-09 -8.076739277385059e-10 2.905540131032467 0.9651830233633518 0.102901995414868 2.2605917138207587e-09 -5.126139512867667e-09 -8.076739277385059e-10 10.27859978377819 0.7318009994924068 0.025912300043273717 2.2605917138207587e-09 -5.126139512867667e-09 -8.076739277385059e-10 2.221670038998127 -0.733487019315362 -0.2089200052432716 1.5987211554602254e-13 0.0 -6.394884621840902e-13 -57.2299987077713 -18.955699503421783 -76.81849837303162 8.18137988448143 -3.110490068793297 -14.433500468730927 9.126190021634102 61.79640054702759 -15.19260048866272 -4.241407225435978e-09 -9.66394964052597e-09 4.969464839632565e-09 -7.026059734016599e-09 -1.859888243416208e-08 8.749481139602722e-09 -4.241407225435978e-09 -9.66394964052597e-09 4.969464839632565e-09 -7.7309102565050125 5.474880114197731 -0.41731400415301323 -4.241407225435978e-09 -9.66394964052597e-09 4.969464839632565e-09 -2.905540131032467 0.9651830233633518 -0.102901995414868 -4.241567097551524e-09 -9.66394964052597e-09 4.969464839632565e-09 -10.27859978377819 0.7318009994924068 -0.025912300043273717 -4.241407225435978e-09 -9.66394964052597e-09 4.969464839632565e-09 -2.221670038998127 -0.733487019315362 0.2089200052432716 0.0 0.0 0.0 -12.477799952030182 14.253399521112442 -4.0390899404883385 0.12805299600586295 27.976499497890472 2.5503400526940823 -7.906609699130058 -16.68610006570816 -31.478901207447052 0.0 0.0 0.0 95.65150022506714 -53.843897581100464 85.42710185050964 9.450200200080872 83.55969965457916 -8.940410166978836 -0.9080229699611664 -1.2954699900001287 -7.473320290446281
0.013700000243261456 48.60369873046875 0.14250000566244125 -18.042300045490265 -27.108399868011475 15.821999609470367 14.311500191688538 7.234430015087128 4.183289855718613 1.402040021494031 -7.556399703025818 1.1613400094211102 0.3776670154184103 12.41379976272583 6.886969953775406 4.039669968187809 -25.261999368667603 14.560000151395798 0.0 0.0 0.0 0.0 0.0 0.0 4.796163466380676e-13 0.0 0.0 106.52299761772156 46.29630088806152 -55.42920112609863 -27.289001047611237 -43.18980127573013 89.85519826412201 -7.431870102882385 -58.464598059654236 -13.239599615335464 1.9032775355753984e-09 -3.5274183574074414e-09 -2.2573942715098383e-10 3.282814020622027e-09 -5.934452929068357e-09 -3.005595772265224e-10 1.9032775355753984e-09 -3.5274183574074414e-09 -2.2573942715098383e-10 7.7309102565050125 5.474880114197731 0.41731400415301323 1.9032775355753984e-09 -3.5274183574074414e-09 -2.2573942715098383e-10 2.905540131032467 0.9651830233633518 0.102901995414868 1.9032775355753984e-09 -3.5274183574074414e-09 -2.2573942715098383e-10 10.27859978377819 0.7318009994924068 0.025912300043273717 1.9032775355753984e-09 -3.5274183574074414e-09 -2.2573942715098383e-10 2.221670038998127 -0.733487019315362 -0.2089200052432716 4.796163466380676e-13 0.0 0.0 -57.17830181121826 -18.928599804639816 -76.72149896621704 8.181819766759872 -3.1064600497484207 -14.433000236749649 9.251510202884674 62.01239883899689 -15.334699898958206 1.0185452481437096e-09 -3.126842784695327e-08 5.3870508054387756e-09 2.0233414943504613e-09 -5.44716272088408e-08 9.209912832375267e-09 1.0185452481437096e-09 -3.126842784695327e-08 5.3870508054387756e-09 -7.7309102565050125 5.474880114197731 -0.41731400415301323 1.0185452481437096e-09 -3.126842784695327e-08 5.3870508054387756e-09 -2.905540131032467 0.9651830233633518 -0.102901995414868 1.0185452481437096e-09 -3.126842784695327e-08 5.3870508054387756e-09 -10.27859978377819 0.7318009994924068 -0.025912300043273717 1.0185452481437096e-09 -3.126842784695327e-08 5.3870508054387756e-09 -2.221670038998127 -0.733487019315362 0.2089200052432716 0.0 0.0 0.0 -12.407000362873077 14.32280033826828 -3.942449949681759 0.1295939984265715 27.86380112171173 2.5519800558686256 -7.906250283122063 -16.644199937582016 -31.557101011276245 0.0 0.0 0.0 95.88709473609924 -53.87769877910614 85.53080141544342 9.741970226168633 83.73630166053772 -9.238919913768768 -0.9119700081646442 -1.4188000559806824 -7.372410222887993
0.03354000044055283 48.5625 0.20900000631809235 -18.09589996933937 -27.120799720287323 15.871400535106659 14.330600202083588 7.216160148382187 4.163459949195385 1.3845299743115902 -7.549869865179062 1.155070010572672 0.40482299868017435 12.39739939570427 6.871810108423233 4.039149954915047 -25.227299630641937 14.52609971165657 0.0 0.0 0.0 0.0 0.0 0.0 4.796163466380676e-13 0.0 6.394884621840902e-13 106.55799508094788 46.36350095272064 -55.428401827812195 -27.285600006580353 -43.194900155067444 89.87490177154541 -7.484340146183968 -58.580201268196106 -13.301099985837936 -8.01598787347757e-10 1.9696244635269977e-09 3.721822849911405e-10 -1.3995204994898813e-09 3.3713831726345234e-09 6.132694352345425e-10 -8.01598787347757e-10 1.9696244635269977e-09 3.721822849911405e-10 7.7309102565050125 5.474880114197731 0.41731400415301323 -8.01598787347757e-10 1.9696244635269977e-09 3.721822849911405e-10 2.905540131032467 0.9651830233633518 0.102901995414868 -8.01598787347757e-10 1.9696244635269977e-09 3.721822849911405e-10 10.27859978377819 0.7318009994924068 0.025912300043273717 -8.01598787347757e-10 1.9696244635269977e-09 3.721822849911405e-10 2.221670038998127 -0.733487019315362 -0.2089200052432716 4.796163466380676e-13 0.0 6.394884621840902e-13 -57.38559901714325 -18.968700170516968 -76.71679973602295 8.160370141267776 -3.095010034739971 -14.393700510263443 9.223129749298096 61.9637006521225 -15.30249997973442 5.106954859002144e-09 -2.6282975795766106e-08 1.369144797536137e-09 8.83437323295766e-09 -4.4101682306063594e-08 2.105835505972209e-09 5.106954859002144e-09 -2.6282975795766106e-08 1.369144797536137e-09 -7.7309102565050125 5.474880114197731 -0.41731400415301323 5.106954859002144e-09 -2.6282975795766106e-08 1.369144797536137e-09 -2.905540131032467 0.9651830233633518 -0.102901995414868 5.106954859002144e-09 -2.6282975795766106e-08 1.369144797536137e-09 -10.27859978377819 0.7318009994924068 -0.025912300043273717 5.106954859002144e-09 -2.6282975795766106e-08 1.369144797536137e-09 -2.221670038998127 -0.733487019315362 0.2089200052432716 0.0 0.0 0.0 -12.409300357103348 14.344000518321991 -3.8798099756240845 0.1304639980662614 27.81610071659088 2.5536599569022655 -7.915509939193726 -16.645099818706512 -31.59239888191223 0.0 0.0 0.0 95.99559545516968 -53.92319977283478 85.55540263652802 9.981350004673004 83.87549757957458 -9.486829787492752 -0.9131660219281912 -1.527359951287508 -7.251150235533714
0.05318000097759068 48.529998779296875 0.27300000935792923 -18.07279944419861 -27.1738001704216 15.88290050625801 14.310299903154373 7.210400104522705 4.161880128085613 1.363440016284585 -7.544359937310219 1.1538699734956026 0.435191011056304 12.383899837732315 6.851560100913048 4.030099846422672 -25.2046000957489 14.480700641870499 0.0 0.0 0.0 0.0 0.0 0.0 3.197442310920451e-13 0.0 6.394884621840902e-13 106.5440046787262 46.41129791736603 -55.37689805030823 -27.28870064020157 -43.18210065364838 89.85629796981812 -7.462679967284203 -58.53289783000946 -13.275699466466904 -3.0690650021369947e-09 6.2593130678578746e-09 6.919265160831856e-10 -5.314628737096427e-09 1.0602718703012215e-08 1.0609113587634056e-09 -3.0689051300214487e-09 6.2593130678578746e-09 6.919265160831856e-10 7.7309102565050125 5.474880114197731 0.41731400415301323 -3.0690650021369947e-09 6.2593130678578746e-09 6.919265160831856e-10 2.905540131032467 0.9651830233633518 0.102901995414868 -3.0689051300214487e-09 6.2593130678578746e-09 6.919265160831856e-10 10.27859978377819 0.7318009994924068 0.025912300043273717 -3.0690650021369947e-09 6.2593130678578746e-09 6.919265160831856e-10 2.221670038998127 -0.733487019315362 -0.2089200052432716 3.197442310920451e-13 0.0 6.394884621840902e-13 -57.59689807891846 -19.01119977235794 -76.71990036964417 8.137380257248878 -3.083980120718479 -14.35189962387085 9.171290025115013 61.874399185180664 -15.243799835443497 6.604796709552829e-09 -1.1439169611549005e-08 -2.6698643296185764e-09 1.1198082461305603e-08 -1.744524524838198e-08 -4.90935292418726e-09 6.604796709552829e-09 -1.1439169611549005e-08 -2.6698643296185764e-09 -7.7309102565050125 5.474880114197731 -0.41731400415301323 6.604796709552829e-09 -1.1439169611549005e-08 -2.6698643296185764e-09 -2.905540131032467 0.9651830233633518 -0.102901995414868 6.604796709552829e-09 -1.1439169611549005e-08 -2.6698643296185764e-09 -10.27859978377819 0.7318009994924068 -0.025912300043273717 6.604796709552829e-09 -1.1439169611549005e-08 -2.6698643296185764e-09 -2.221670038998127 -0.733487019315362 0.2089200052432716 0.0 0.0 0.0 -12.458599358797073 14.353699386119843 -3.8291601464152336 0.1310839969664812 27.781400978565216 2.5546200200915337 -7.922200039029121 -16.655899733304977 -31.60479873418808 0.0 0.0 0.0 96.02660179138184 -53.952500224113464 85.54149806499481 10.190400034189224 83.99289786815643 -9.704279825091362 -0.9136209916323423 -1.6276100277900696 -7.133949771523476
